<svg width="9" height="11" viewBox="0 0 9 11" fill="none" xmlns="http://www.w3.org/2000/svg">
<path d="M5.35938 8.375H5.82812C5.94531 8.375 6.0625 8.27734 6.0625 8.14062V3.92188C6.0625 3.80469 5.94531 3.6875 5.82812 3.6875H5.35938C5.22266 3.6875 5.125 3.80469 5.125 3.92188V8.14062C5.125 8.27734 5.22266 8.375 5.35938 8.375ZM8.5625 1.8125H6.94141L6.27734 0.71875C6.12109 0.445312 5.80859 0.25 5.47656 0.25H3.50391C3.17188 0.25 2.85938 0.445312 2.70312 0.71875L2.03906 1.8125H0.4375C0.261719 1.8125 0.125 1.96875 0.125 2.125V2.4375C0.125 2.61328 0.261719 2.75 0.4375 2.75H0.75V9.3125C0.75 9.83984 1.16016 10.25 1.6875 10.25H7.3125C7.82031 10.25 8.25 9.83984 8.25 9.3125V2.75H8.5625C8.71875 2.75 8.875 2.61328 8.875 2.4375V2.125C8.875 1.96875 8.71875 1.8125 8.5625 1.8125ZM3.46484 1.24609C3.48438 1.22656 3.52344 1.1875 3.5625 1.1875C3.5625 1.1875 3.5625 1.1875 3.58203 1.1875H5.41797C5.45703 1.1875 5.49609 1.22656 5.51562 1.24609L5.84766 1.8125H3.13281L3.46484 1.24609ZM7.3125 9.3125H1.6875V2.75H7.3125V9.3125ZM3.17188 8.375H3.64062C3.75781 8.375 3.875 8.27734 3.875 8.14062V3.92188C3.875 3.80469 3.75781 3.6875 3.64062 3.6875H3.17188C3.03516 3.6875 2.9375 3.80469 2.9375 3.92188V8.14062C2.9375 8.27734 3.03516 8.375 3.17188 8.375Z" fill="#757575"/>
</svg>
